<?xml version="1.0" encoding="utf-8"?>
<!-- Generator: Adobe Illustrator 18.1.0, SVG Export Plug-In . SVG Version: 6.00 Build 0)  -->
<svg version="1.1" xmlns="http://www.w3.org/2000/svg" xmlns:xlink="http://www.w3.org/1999/xlink" x="0px" y="0px"
	 viewBox="0 0 16 16" enable-background="new 0 0 16 16" xml:space="preserve">
<g id="Apple" display="none">
	<g display="inline">
		<path fill="#FFFFFF" d="M12,15"/>
		<polyline fill="#FFFFFF" points="12,15 11,15 11,16 		"/>
		<rect x="10" y="15" fill="#54090E" width="1" height="1"/>
		<rect x="9" y="15" fill="#54090E" width="1" height="1"/>
		<polyline fill="#FFFFFF" points="9,16 9,15 8,15 		"/>
		<polyline fill="#FFFFFF" points="8,15 7,15 7,16 		"/>
		<rect x="6" y="15" fill="#54090E" width="1" height="1"/>
		<rect x="5" y="15" fill="#54090E" width="1" height="1"/>
		<polyline fill="#FFFFFF" points="5,16 5,15 4,15 		"/>
		<path fill="#FFFFFF" d="M4,15"/>
		<path fill="#FFFFFF" d="M13,14"/>
		<polyline fill="#FFFFFF" points="13,14 12,14 12,15 		"/>
		<rect x="11" y="14" fill="#54090E" width="1" height="1"/>
		<rect x="10" y="14" fill="#B4131E" width="1" height="1"/>
		<rect x="9" y="14" fill="#B4131E" width="1" height="1"/>
		<rect x="8" y="14" fill="#351705" width="1" height="1"/>
		<rect x="7" y="14" fill="#351705" width="1" height="1"/>
		<rect x="6" y="14" fill="#B4131E" width="1" height="1"/>
		<rect x="5" y="14" fill="#B4131E" width="1" height="1"/>
		<rect x="4" y="14" fill="#54090E" width="1" height="1"/>
		<line fill="#FFFFFF" x1="13" y1="13" x2="13" y2="14"/>
		<rect x="12" y="13" fill="#54090E" width="1" height="1"/>
		<rect x="11" y="13" fill="#B4131E" width="1" height="1"/>
		<rect x="10" y="13" fill="#B4131E" width="1" height="1"/>
		<rect x="9" y="13" fill="#C51421" width="1" height="1"/>
		<rect x="8" y="13" fill="#DD1725" width="1" height="1"/>
		<rect x="7" y="13" fill="#DD1725" width="1" height="1"/>
		<rect x="6" y="13" fill="#DD1725" width="1" height="1"/>
		<rect x="5" y="13" fill="#B4131E" width="1" height="1"/>
		<rect x="4" y="13" fill="#B4131E" width="1" height="1"/>
		<rect x="3" y="13" fill="#9E111A" width="1" height="1"/>
		<path fill="#FFFFFF" d="M14,12"/>
		<polyline fill="#FFFFFF" points="14,12 13,12 13,13 		"/>
		<rect x="12" y="12" fill="#54090E" width="1" height="1"/>
		<rect x="11" y="12" fill="#B4131E" width="1" height="1"/>
		<rect x="10" y="12" fill="#C51421" width="1" height="1"/>
		<rect x="9" y="12" fill="#DD1725" width="1" height="1"/>
		<rect x="8" y="12" fill="#F01928" width="1" height="1"/>
		<rect x="7" y="12" fill="#F01928" width="1" height="1"/>
		<rect x="6" y="12" fill="#FF1C2B" width="1" height="1"/>
		<rect x="5" y="12" fill="#FF1C2B" width="1" height="1"/>
		<rect x="4" y="12" fill="#DD1725" width="1" height="1"/>
		<rect x="3" y="12" fill="#9E111A" width="1" height="1"/>
		<path fill="#FFFFFF" d="M2,12"/>
		<line fill="#FFFFFF" x1="14" y1="11" x2="14" y2="12"/>
		<rect x="13" y="11" fill="#54090E" width="1" height="1"/>
		<rect x="12" y="11" fill="#B4131E" width="1" height="1"/>
		<rect x="11" y="11" fill="#C51421" width="1" height="1"/>
		<rect x="10" y="11" fill="#DD1725" width="1" height="1"/>
		<rect x="9" y="11" fill="#F01928" width="1" height="1"/>
		<rect x="8" y="11" fill="#FF1C2B" width="1" height="1"/>
		<rect x="7" y="11" fill="#FF1C2B" width="1" height="1"/>
		<rect x="6" y="11" fill="#FF1C2B" width="1" height="1"/>
		<rect x="5" y="11" fill="#FF1C2B" width="1" height="1"/>
		<rect x="4" y="11" fill="#FF1C2B" width="1" height="1"/>
		<rect x="3" y="11" fill="#FF1C2B" width="1" height="1"/>
		<rect x="2" y="11" fill="#B2131E" width="1" height="1"/>
		<line fill="#FFFFFF" x1="2" y1="12" x2="2" y2="11"/>
		<line fill="#FFFFFF" x1="14" y1="10" x2="14" y2="11"/>
		<rect x="13" y="10" fill="#54090E" width="1" height="1"/>
		<rect x="12" y="10" fill="#B4131E" width="1" height="1"/>
		<rect x="11" y="10" fill="#DD1725" width="1" height="1"/>
		<rect x="10" y="10" fill="#F01928" width="1" height="1"/>
		<rect x="9" y="10" fill="#FF1C2B" width="1" height="1"/>
		<rect x="8" y="10" fill="#FF1C2B" width="1" height="1"/>
		<rect x="7" y="10" fill="#FF1C2B" width="1" height="1"/>
		<rect x="6" y="10" fill="#FF1C2B" width="1" height="1"/>
		<rect x="5" y="10" fill="#FF1C2B" width="1" height="1"/>
		<rect x="4" y="10" fill="#FF1C2B" width="1" height="1"/>
		<rect x="3" y="10" fill="#FF1C2B" width="1" height="1"/>
		<rect x="2" y="10" fill="#D31623" width="1" height="1"/>
		<line fill="#FFFFFF" x1="2" y1="11" x2="2" y2="10"/>
		<line fill="#FFFFFF" x1="14" y1="9" x2="14" y2="10"/>
		<rect x="13" y="9" fill="#54090E" width="1" height="1"/>
		<rect x="12" y="9" fill="#B4131E" width="1" height="1"/>
		<rect x="11" y="9" fill="#DD1725" width="1" height="1"/>
		<rect x="10" y="9" fill="#F01928" width="1" height="1"/>
		<rect x="9" y="9" fill="#FF1C2B" width="1" height="1"/>
		<rect x="8" y="9" fill="#FF1C2B" width="1" height="1"/>
		<rect x="7" y="9" fill="#FF1C2B" width="1" height="1"/>
		<rect x="6" y="9" fill="#FF1C2B" width="1" height="1"/>
		<rect x="5" y="9" fill="#FF969D" width="1" height="1"/>
		<rect x="4" y="9" fill="#FF535E" width="1" height="1"/>
		<rect x="3" y="9" fill="#FF1C2B" width="1" height="1"/>
		<rect x="2" y="9" fill="#D31623" width="1" height="1"/>
		<line fill="#FFFFFF" x1="2" y1="10" x2="2" y2="9"/>
		<line fill="#FFFFFF" x1="14" y1="8" x2="14" y2="9"/>
		<rect x="13" y="8" fill="#7D0D14" width="1" height="1"/>
		<rect x="12" y="8" fill="#B4131E" width="1" height="1"/>
		<rect x="11" y="8" fill="#DD1725" width="1" height="1"/>
		<rect x="10" y="8" fill="#FF1C2B" width="1" height="1"/>
		<rect x="9" y="8" fill="#FF1C2B" width="1" height="1"/>
		<rect x="8" y="8" fill="#FF1C2B" width="1" height="1"/>
		<rect x="7" y="8" fill="#FF1C2B" width="1" height="1"/>
		<rect x="6" y="8" fill="#FF5E69" width="1" height="1"/>
		<rect x="5" y="8" fill="#FF969D" width="1" height="1"/>
		<rect x="4" y="8" fill="#FFA0A6" width="1" height="1"/>
		<rect x="3" y="8" fill="#F01928" width="1" height="1"/>
		<rect x="2" y="8" fill="#D31623" width="1" height="1"/>
		<line fill="#FFFFFF" x1="2" y1="9" x2="2" y2="8"/>
		<path fill="#FFFFFF" d="M14,8"/>
		<polyline fill="#FFFFFF" points="13,7 13,8 14,8 		"/>
		<rect x="12" y="7" fill="#7D0D14" width="1" height="1"/>
		<rect x="11" y="7" fill="#B4131E" width="1" height="1"/>
		<rect x="10" y="7" fill="#FF1C2B" width="1" height="1"/>
		<rect x="9" y="7" fill="#FF1C2B" width="1" height="1"/>
		<rect x="8" y="7" fill="#FF1C2B" width="1" height="1"/>
		<rect x="7" y="7" fill="#FF5E69" width="1" height="1"/>
		<rect x="6" y="7" fill="#FF969D" width="1" height="1"/>
		<rect x="5" y="7" fill="#FFAAAF" width="1" height="1"/>
		<rect x="4" y="7" fill="#FF1C2B" width="1" height="1"/>
		<rect x="3" y="7" fill="#D31623" width="1" height="1"/>
		<polyline fill="#FFFFFF" points="2,8 3,8 3,7 		"/>
		<path fill="#FFFFFF" d="M2,8"/>
		<line fill="#FFFFFF" x1="13" y1="6" x2="13" y2="7"/>
		<rect x="12" y="6" fill="#7D0D14" width="1" height="1"/>
		<rect x="11" y="6" fill="#B4131E" width="1" height="1"/>
		<rect x="10" y="6" fill="#B4131E" width="1" height="1"/>
		<rect x="9" y="6" fill="#FF1C2B" width="1" height="1"/>
		<rect x="8" y="6" fill="#B4131E" width="1" height="1"/>
		<rect x="7" y="6" fill="#FF1C2B" width="1" height="1"/>
		<rect x="6" y="6" fill="#FF1C2B" width="1" height="1"/>
		<rect x="5" y="6" fill="#FF1C2B" width="1" height="1"/>
		<rect x="4" y="6" fill="#F01928" width="1" height="1"/>
		<rect x="3" y="6" fill="#D31623" width="1" height="1"/>
		<line fill="#FFFFFF" x1="3" y1="7" x2="3" y2="6"/>
		<path fill="#FFFFFF" d="M13,6"/>
		<polyline fill="#FFFFFF" points="12,5 12,6 13,6 		"/>
		<rect x="11" y="5" fill="#7D0D14" width="1" height="1"/>
		<rect x="10" y="5" fill="#7D0D14" width="1" height="1"/>
		<rect x="9" y="5" fill="#B4131E" width="1" height="1"/>
		<rect x="8" y="5" fill="#542409" width="1" height="1"/>
		<rect x="7" y="5" fill="#542409" width="1" height="1"/>
		<rect x="6" y="5" fill="#F01928" width="1" height="1"/>
		<rect x="5" y="5" fill="#D31623" width="1" height="1"/>
		<rect x="4" y="5" fill="#D31623" width="1" height="1"/>
		<polyline fill="#FFFFFF" points="3,6 4,6 4,5 		"/>
		<path fill="#FFFFFF" d="M3,6"/>
		<path fill="#FFFFFF" d="M12,5"/>
		<line fill="#FFFFFF" x1="11" y1="5" x2="12" y2="5"/>
		<polyline fill="#FFFFFF" points="10,4 10,5 11,5 		"/>
		<rect x="9" y="4" fill="#441E07" width="1" height="1"/>
		<rect x="8" y="4" fill="#301504" width="1" height="1"/>
		<rect x="7" y="4" fill="#B2131E" width="1" height="1"/>
		<rect x="6" y="4" fill="#D31623" width="1" height="1"/>
		<polyline fill="#FFFFFF" points="5,5 6,5 6,4 		"/>
		<line fill="#FFFFFF" x1="4" y1="5" x2="5" y2="5"/>
		<path fill="#FFFFFF" d="M4,5"/>
		<path fill="#FFFFFF" d="M10,4"/>
		<path fill="#FFFFFF" d="M10,3"/>
		<polyline fill="#FFFFFF" points="10,3 9,3 9,4 10,4 		"/>
		<rect x="8" y="3" fill="#77340D" width="1" height="1"/>
		<polyline fill="#FFFFFF" points="7,4 8,4 8,3 		"/>
		<line fill="#FFFFFF" x1="6" y1="4" x2="7" y2="4"/>
		<path fill="#FFFFFF" d="M6,4"/>
		<line fill="#FFFFFF" x1="10" y1="2" x2="10" y2="3"/>
		<rect x="9" y="2" fill="#441E07" width="1" height="1"/>
		<rect x="8" y="2" fill="#77340D" width="1" height="1"/>
		<line fill="#FFFFFF" x1="8" y1="3" x2="8" y2="2"/>
		<line fill="#FFFFFF" x1="10" y1="1" x2="10" y2="2"/>
		<rect x="9" y="1" fill="#77340D" width="1" height="1"/>
		<polyline fill="#FFFFFF" points="8,2 9,2 9,1 		"/>
		<path fill="#FFFFFF" d="M8,2"/>
		<path fill="#FFFFFF" d="M10,1"/>
		<line fill="#FFFFFF" x1="9" y1="1" x2="10" y2="1"/>
		<path fill="#FFFFFF" d="M9,1"/>
	</g>
</g>
<g id="Golden_Apple" display="none">
	<g display="inline">
		<path fill="#FFFFFF" d="M12,15"/>
		<polyline fill="#FFFFFF" points="12,15 11,15 11,16 		"/>
		<rect x="10" y="15" fill="#191919" width="1" height="1"/>
		<rect x="9" y="15" fill="#191919" width="1" height="1"/>
		<polyline fill="#FFFFFF" points="9,16 9,15 8,15 		"/>
		<polyline fill="#FFFFFF" points="8,15 7,15 7,16 		"/>
		<rect x="6" y="15" fill="#191919" width="1" height="1"/>
		<rect x="5" y="15" fill="#191919" width="1" height="1"/>
		<polyline fill="#FFFFFF" points="5,16 5,15 4,15 		"/>
		<path fill="#FFFFFF" d="M4,15"/>
		<path fill="#FFFFFF" d="M13,14"/>
		<polyline fill="#FFFFFF" points="13,14 12,14 12,15 		"/>
		<rect x="11" y="14" fill="#191919" width="1" height="1"/>
		<rect x="10" y="14" fill="#DBA213" width="1" height="1"/>
		<rect x="9" y="14" fill="#DBA213" width="1" height="1"/>
		<rect x="8" y="14" fill="#351705" width="1" height="1"/>
		<rect x="7" y="14" fill="#351705" width="1" height="1"/>
		<rect x="6" y="14" fill="#DBA213" width="1" height="1"/>
		<rect x="5" y="14" fill="#DBA213" width="1" height="1"/>
		<rect x="4" y="14" fill="#191919" width="1" height="1"/>
		<polyline fill="#FFFFFF" points="4,15 4,14 3,14 		"/>
		<path fill="#FFFFFF" d="M3,14"/>
		<line fill="#FFFFFF" x1="13" y1="13" x2="13" y2="14"/>
		<rect x="12" y="13" fill="#191919" width="1" height="1"/>
		<rect x="11" y="13" fill="#DBA213" width="1" height="1"/>
		<rect x="10" y="13" fill="#DBA213" width="1" height="1"/>
		<rect x="9" y="13" fill="#DBA213" width="1" height="1"/>
		<rect x="8" y="13" fill="#DBA213" width="1" height="1"/>
		<rect x="7" y="13" fill="#DBA213" width="1" height="1"/>
		<rect x="6" y="13" fill="#DBA213" width="1" height="1"/>
		<rect x="5" y="13" fill="#DBA213" width="1" height="1"/>
		<rect x="4" y="13" fill="#DBA213" width="1" height="1"/>
		<rect x="3" y="13" fill="#191919" width="1" height="1"/>
		<line fill="#FFFFFF" x1="3" y1="14" x2="3" y2="13"/>
		<path fill="#FFFFFF" d="M14,12"/>
		<polyline fill="#FFFFFF" points="14,12 13,12 13,13 		"/>
		<rect x="12" y="12" fill="#191919" width="1" height="1"/>
		<rect x="11" y="12" fill="#DBA213" width="1" height="1"/>
		<rect x="10" y="12" fill="#DBA213" width="1" height="1"/>
		<rect x="9" y="12" fill="#DBA213" width="1" height="1"/>
		<rect x="8" y="12" fill="#EAEE57" width="1" height="1"/>
		<rect x="7" y="12" fill="#EAEE57" width="1" height="1"/>
		<rect x="6" y="12" fill="#EAEE57" width="1" height="1"/>
		<rect x="5" y="12" fill="#EAEE57" width="1" height="1"/>
		<rect x="4" y="12" fill="#DBA213" width="1" height="1"/>
		<rect x="3" y="12" fill="#191919" width="1" height="1"/>
		<polyline fill="#FFFFFF" points="3,13 3,12 2,12 		"/>
		<path fill="#FFFFFF" d="M2,12"/>
		<line fill="#FFFFFF" x1="14" y1="11" x2="14" y2="12"/>
		<rect x="13" y="11" fill="#191919" width="1" height="1"/>
		<rect x="12" y="11" fill="#DBA213" width="1" height="1"/>
		<rect x="11" y="11" fill="#DBA213" width="1" height="1"/>
		<rect x="10" y="11" fill="#DBA213" width="1" height="1"/>
		<rect x="9" y="11" fill="#EAEE57" width="1" height="1"/>
		<rect x="8" y="11" fill="#EAEE57" width="1" height="1"/>
		<rect x="7" y="11" fill="#EAEE57" width="1" height="1"/>
		<rect x="6" y="11" fill="#EAEE57" width="1" height="1"/>
		<rect x="5" y="11" fill="#EAEE57" width="1" height="1"/>
		<rect x="4" y="11" fill="#EAEE57" width="1" height="1"/>
		<rect x="3" y="11" fill="#EAEE57" width="1" height="1"/>
		<rect x="2" y="11" fill="#191919" width="1" height="1"/>
		<line fill="#FFFFFF" x1="2" y1="12" x2="2" y2="11"/>
		<line fill="#FFFFFF" x1="14" y1="10" x2="14" y2="11"/>
		<rect x="13" y="10" fill="#191919" width="1" height="1"/>
		<rect x="12" y="10" fill="#DBA213" width="1" height="1"/>
		<rect x="11" y="10" fill="#DBA213" width="1" height="1"/>
		<rect x="10" y="10" fill="#EAEE57" width="1" height="1"/>
		<rect x="9" y="10" fill="#EAEE57" width="1" height="1"/>
		<rect x="8" y="10" fill="#EAEE57" width="1" height="1"/>
		<rect x="7" y="10" fill="#EAEE57" width="1" height="1"/>
		<rect x="6" y="10" fill="#EAEE57" width="1" height="1"/>
		<rect x="5" y="10" fill="#EAEE57" width="1" height="1"/>
		<rect x="4" y="10" fill="#EAEE57" width="1" height="1"/>
		<rect x="3" y="10" fill="#EAEE57" width="1" height="1"/>
		<rect x="2" y="10" fill="#191919" width="1" height="1"/>
		<line fill="#FFFFFF" x1="2" y1="11" x2="2" y2="10"/>
		<line fill="#FFFFFF" x1="14" y1="9" x2="14" y2="10"/>
		<rect x="13" y="9" fill="#191919" width="1" height="1"/>
		<rect x="12" y="9" fill="#DBA213" width="1" height="1"/>
		<rect x="11" y="9" fill="#DBA213" width="1" height="1"/>
		<rect x="10" y="9" fill="#EAEE57" width="1" height="1"/>
		<rect x="9" y="9" fill="#EAEE57" width="1" height="1"/>
		<rect x="8" y="9" fill="#EAEE57" width="1" height="1"/>
		<rect x="7" y="9" fill="#EAEE57" width="1" height="1"/>
		<rect x="6" y="9" fill="#EAEE57" width="1" height="1"/>
		<rect x="5" y="9" fill="#FFFFFF" width="1" height="1"/>
		<rect x="4" y="9" fill="#FFFFFF" width="1" height="1"/>
		<rect x="3" y="9" fill="#EAEE57" width="1" height="1"/>
		<rect x="2" y="9" fill="#191919" width="1" height="1"/>
		<line fill="#FFFFFF" x1="2" y1="10" x2="2" y2="9"/>
		<line fill="#FFFFFF" x1="14" y1="8" x2="14" y2="9"/>
		<rect x="13" y="8" fill="#191919" width="1" height="1"/>
		<rect x="12" y="8" fill="#DBA213" width="1" height="1"/>
		<rect x="11" y="8" fill="#DBA213" width="1" height="1"/>
		<rect x="10" y="8" fill="#EAEE57" width="1" height="1"/>
		<rect x="9" y="8" fill="#EAEE57" width="1" height="1"/>
		<rect x="8" y="8" fill="#EAEE57" width="1" height="1"/>
		<rect x="7" y="8" fill="#EAEE57" width="1" height="1"/>
		<rect x="6" y="8" fill="#EAEE57" width="1" height="1"/>
		<rect x="5" y="8" fill="#FFFFFF" width="1" height="1"/>
		<rect x="4" y="8" fill="#FFFFFF" width="1" height="1"/>
		<rect x="3" y="8" fill="#EAEE57" width="1" height="1"/>
		<rect x="2" y="8" fill="#191919" width="1" height="1"/>
		<line fill="#FFFFFF" x1="2" y1="9" x2="2" y2="8"/>
		<path fill="#FFFFFF" d="M16,7"/>
		<path fill="#FFFFFF" d="M14,8"/>
		<polyline fill="#FFFFFF" points="13,7 13,8 14,8 		"/>
		<rect x="12" y="7" fill="#191919" width="1" height="1"/>
		<rect x="11" y="7" fill="#DBA213" width="1" height="1"/>
		<rect x="10" y="7" fill="#EAEE57" width="1" height="1"/>
		<rect x="9" y="7" fill="#EAEE57" width="1" height="1"/>
		<rect x="8" y="7" fill="#EAEE57" width="1" height="1"/>
		<rect x="7" y="7" fill="#EAEE57" width="1" height="1"/>
		<rect x="6" y="7" fill="#FFFFFF" width="1" height="1"/>
		<rect x="5" y="7" fill="#FFFFFF" width="1" height="1"/>
		<rect x="4" y="7" fill="#EAEE57" width="1" height="1"/>
		<rect x="3" y="7" fill="#191919" width="1" height="1"/>
		<polyline fill="#FFFFFF" points="2,8 3,8 3,7 		"/>
		<path fill="#FFFFFF" d="M2,8"/>
		<line fill="#FFFFFF" x1="16" y1="7" x2="16" y2="6"/>
		<line fill="#FFFFFF" x1="13" y1="6" x2="13" y2="7"/>
		<rect x="12" y="6" fill="#191919" width="1" height="1"/>
		<rect x="11" y="6" fill="#DBA213" width="1" height="1"/>
		<rect x="10" y="6" fill="#DBA213" width="1" height="1"/>
		<rect x="9" y="6" fill="#EAEE57" width="1" height="1"/>
		<rect x="8" y="6" fill="#DBA213" width="1" height="1"/>
		<rect x="7" y="6" fill="#EAEE57" width="1" height="1"/>
		<rect x="6" y="6" fill="#EAEE57" width="1" height="1"/>
		<rect x="5" y="6" fill="#EAEE57" width="1" height="1"/>
		<rect x="4" y="6" fill="#EAEE57" width="1" height="1"/>
		<rect x="3" y="6" fill="#191919" width="1" height="1"/>
		<line fill="#FFFFFF" x1="3" y1="7" x2="3" y2="6"/>
		<path fill="#FFFFFF" d="M16,6"/>
		<path fill="#FFFFFF" d="M13,6"/>
		<polyline fill="#FFFFFF" points="12,5 12,6 13,6 		"/>
		<rect x="11" y="5" fill="#191919" width="1" height="1"/>
		<rect x="10" y="5" fill="#191919" width="1" height="1"/>
		<rect x="9" y="5" fill="#DBA213" width="1" height="1"/>
		<rect x="8" y="5" fill="#542409" width="1" height="1"/>
		<rect x="7" y="5" fill="#542409" width="1" height="1"/>
		<rect x="6" y="5" fill="#EAEE57" width="1" height="1"/>
		<rect x="5" y="5" fill="#191919" width="1" height="1"/>
		<rect x="4" y="5" fill="#191919" width="1" height="1"/>
		<polyline fill="#FFFFFF" points="3,6 4,6 4,5 		"/>
		<path fill="#FFFFFF" d="M3,6"/>
		<path fill="#FFFFFF" d="M12,5"/>
		<line fill="#FFFFFF" x1="11" y1="5" x2="12" y2="5"/>
		<polyline fill="#FFFFFF" points="10,4 10,5 11,5 		"/>
		<rect x="9" y="4" fill="#191919" width="1" height="1"/>
		<rect x="8" y="4" fill="#301504" width="1" height="1"/>
		<rect x="7" y="4" fill="#191919" width="1" height="1"/>
		<rect x="6" y="4" fill="#191919" width="1" height="1"/>
		<polyline fill="#FFFFFF" points="5,5 6,5 6,4 		"/>
		<line fill="#FFFFFF" x1="4" y1="5" x2="5" y2="5"/>
		<path fill="#FFFFFF" d="M4,5"/>
		<path fill="#FFFFFF" d="M10,4"/>
		<path fill="#FFFFFF" d="M10,3"/>
		<polyline fill="#FFFFFF" points="10,3 9,3 9,4 10,4 		"/>
		<rect x="8" y="3" fill="#191919" width="1" height="1"/>
		<polyline fill="#FFFFFF" points="7,4 8,4 8,3 		"/>
		<line fill="#FFFFFF" x1="6" y1="4" x2="7" y2="4"/>
		<path fill="#FFFFFF" d="M6,4"/>
		<line fill="#FFFFFF" x1="10" y1="2" x2="10" y2="3"/>
		<rect x="9" y="2" fill="#191919" width="1" height="1"/>
		<rect x="8" y="2" fill="#191919" width="1" height="1"/>
		<line fill="#FFFFFF" x1="8" y1="3" x2="8" y2="2"/>
		<line fill="#FFFFFF" x1="10" y1="1" x2="10" y2="2"/>
		<rect x="9" y="1" fill="#191919" width="1" height="1"/>
		<polyline fill="#FFFFFF" points="8,2 9,2 9,1 		"/>
		<path fill="#FFFFFF" d="M8,2"/>
		<path fill="#FFFFFF" d="M10,1"/>
		<line fill="#FFFFFF" x1="9" y1="1" x2="10" y2="1"/>
		<path fill="#FFFFFF" d="M9,1"/>
	</g>
</g>
<g id="Layer_3" display="none">
	<g display="inline">
		<path fill="#FFFFFF" d="M4,15"/>
		<line fill="#FFFFFF" x1="4" y1="15" x2="3" y2="15"/>
		<path fill="#FFFFFF" d="M3,15"/>
		<path fill="#FFFFFF" d="M5,14"/>
		<polyline fill="#FFFFFF" points="5,14 4,14 4,15 		"/>
		<rect x="3" y="14" fill="#3F3F3F" width="1" height="1"/>
		<polyline fill="#FFFFFF" points="3,15 3,14 2,14 		"/>
		<path fill="#FFFFFF" d="M2,14"/>
		<path fill="#FFFFFF" d="M6,13"/>
		<polyline fill="#FFFFFF" points="6,13 5,13 5,14 		"/>
		<rect x="4" y="13" fill="#3F3F3F" width="1" height="1"/>
		<rect x="3" y="13" fill="#E0E0E0" width="1" height="1"/>
		<rect x="2" y="13" fill="#3F3F3F" width="1" height="1"/>
		<line fill="#FFFFFF" x1="2" y1="14" x2="2" y2="13"/>
		<line fill="#FFFFFF" x1="6" y1="12" x2="6" y2="13"/>
		<rect x="5" y="12" fill="#3F3F3F" width="1" height="1"/>
		<rect x="4" y="12" fill="#E0E0E0" width="1" height="1"/>
		<rect x="3" y="12" fill="#C6C6C6" width="1" height="1"/>
		<rect x="2" y="12" fill="#E0E0E0" width="1" height="1"/>
		<line fill="#FFFFFF" x1="2" y1="13" x2="2" y2="12"/>
		<path fill="#FFFFFF" d="M7,11"/>
		<polyline fill="#FFFFFF" points="7,11 6,11 6,12 		"/>
		<rect x="5" y="11" fill="#281E0B" width="1" height="1"/>
		<rect x="4" y="11" fill="#C6C6C6" width="1" height="1"/>
		<rect x="3" y="11" fill="#E0E0E0" width="1" height="1"/>
		<polyline fill="#FFFFFF" points="2,12 3,12 3,11 		"/>
		<path fill="#FFFFFF" d="M2,12"/>
		<path fill="#FFFFFF" d="M8,10"/>
		<polyline fill="#FFFFFF" points="8,10 7,10 7,11 		"/>
		<rect x="6" y="10" fill="#281E0B" width="1" height="1"/>
		<rect x="5" y="10" fill="#896727" width="1" height="1"/>
		<polyline fill="#FFFFFF" points="4,11 5,11 5,10 		"/>
		<line fill="#FFFFFF" x1="3" y1="11" x2="4" y2="11"/>
		<path fill="#FFFFFF" d="M3,11"/>
		<path fill="#FFFFFF" d="M9,9"/>
		<polyline fill="#FFFFFF" points="9,9 8,9 8,10 		"/>
		<rect x="7" y="9" fill="#281E0B" width="1" height="1"/>
		<rect x="6" y="9" fill="#896727" width="1" height="1"/>
		<polyline fill="#FFFFFF" points="5,10 6,10 6,9 		"/>
		<path fill="#FFFFFF" d="M5,10"/>
		<path fill="#FFFFFF" d="M10,8"/>
		<polyline fill="#FFFFFF" points="10,8 9,8 9,9 		"/>
		<rect x="8" y="8" fill="#281E0B" width="1" height="1"/>
		<rect x="7" y="8" fill="#896727" width="1" height="1"/>
		<polyline fill="#FFFFFF" points="6,9 7,9 7,8 		"/>
		<path fill="#FFFFFF" d="M6,9"/>
		<path fill="#FFFFFF" d="M15,7"/>
		<path fill="#FFFFFF" d="M15,7"/>
		<path fill="#FFFFFF" d="M13,7"/>
		<line fill="#FFFFFF" x1="13" y1="7" x2="12" y2="7"/>
		<path fill="#FFFFFF" d="M11,7"/>
		<path fill="#FFFFFF" d="M12,7"/>
		<polyline fill="#FFFFFF" points="11,7 10,7 10,8 		"/>
		<rect x="9" y="7" fill="#281E0B" width="1" height="1"/>
		<rect x="8" y="7" fill="#896727" width="1" height="1"/>
		<polyline fill="#FFFFFF" points="7,8 8,8 8,7 		"/>
		<path fill="#FFFFFF" d="M7,8"/>
		<path fill="#FFFFFF" d="M15,7"/>
		<path fill="#FFFFFF" d="M14,6"/>
		<path fill="#FFFFFF" d="M15,7"/>
		<polyline fill="#FFFFFF" points="14,6 13,6 13,7 		"/>
		<rect x="12" y="6" fill="#444444" width="1" height="1"/>
		<polyline fill="#FFFFFF" points="12,7 12,6 11,6 11,7 		"/>
		<rect x="10" y="6" fill="#281E0B" width="1" height="1"/>
		<rect x="9" y="6" fill="#896727" width="1" height="1"/>
		<polyline fill="#FFFFFF" points="8,7 9,7 9,6 		"/>
		<path fill="#FFFFFF" d="M8,7"/>
		<line fill="#FFFFFF" x1="14" y1="5" x2="14" y2="6"/>
		<rect x="13" y="5" fill="#444444" width="1" height="1"/>
		<rect x="12" y="5" fill="#969696" width="1" height="1"/>
		<rect x="11" y="5" fill="#281E0B" width="1" height="1"/>
		<rect x="10" y="5" fill="#896727" width="1" height="1"/>
		<polyline fill="#FFFFFF" points="9,6 10,6 10,5 		"/>
		<path fill="#FFFFFF" d="M9,6"/>
		<path fill="#FFFFFF" d="M15,4"/>
		<polyline fill="#FFFFFF" points="15,4 14,4 14,5 		"/>
		<rect x="13" y="4" fill="#444444" width="1" height="1"/>
		<rect x="12" y="4" fill="#D8D8D8" width="1" height="1"/>
		<rect x="11" y="4" fill="#896727" width="1" height="1"/>
		<rect x="10" y="4" fill="#444444" width="1" height="1"/>
		<line fill="#FFFFFF" x1="10" y1="5" x2="10" y2="4"/>
		<line fill="#FFFFFF" x1="15" y1="3" x2="15" y2="4"/>
		<rect x="14" y="3" fill="#444444" width="1" height="1"/>
		<rect x="13" y="3" fill="#969696" width="1" height="1"/>
		<rect x="12" y="3" fill="#D8D8D8" width="1" height="1"/>
		<rect x="11" y="3" fill="#D8D8D8" width="1" height="1"/>
		<rect x="10" y="3" fill="#969696" width="1" height="1"/>
		<line fill="#FFFFFF" x1="10" y1="4" x2="10" y2="3"/>
		<line fill="#FFFFFF" x1="15" y1="2" x2="15" y2="3"/>
		<rect x="14" y="2" fill="#444444" width="1" height="1"/>
		<rect x="13" y="2" fill="#FFFFFF" width="1" height="1"/>
		<rect x="12" y="2" fill="#969696" width="1" height="1"/>
		<polyline fill="#FFFFFF" points="11,3 12,3 12,2 		"/>
		<line fill="#FFFFFF" x1="10" y1="3" x2="11" y2="3"/>
		<path fill="#FFFFFF" d="M10,3"/>
		<path fill="#FFFFFF" d="M15,2"/>
		<line fill="#FFFFFF" x1="14" y1="2" x2="15" y2="2"/>
		<line fill="#FFFFFF" x1="13" y1="2" x2="14" y2="2"/>
		<line fill="#FFFFFF" x1="12" y1="2" x2="13" y2="2"/>
		<path fill="#FFFFFF" d="M12,2"/>
	</g>
</g>
<g id="Layer_4" display="none">
	<g display="inline">
		<rect x="5" y="14" fill="#413421" width="1" height="1"/>
		<rect x="4" y="14" fill="#413421" width="1" height="1"/>
		<rect x="5" y="13" fill="#413421" width="1" height="1"/>
		<rect x="4" y="13" fill="#695433" width="1" height="1"/>
		<rect x="5" y="12" fill="#413421" width="1" height="1"/>
		<rect x="4" y="12" fill="#9F844D" width="1" height="1"/>
		<rect x="7" y="11" fill="#413421" width="1" height="1"/>
		<rect x="6" y="11" fill="#413421" width="1" height="1"/>
		<rect x="5" y="11" fill="#720000" width="1" height="1"/>
		<rect x="4" y="11" fill="#720000" width="1" height="1"/>
		<rect x="3" y="11" fill="#413421" width="1" height="1"/>
		<rect x="9" y="10" fill="#413421" width="1" height="1"/>
		<rect x="8" y="10" fill="#413421" width="1" height="1"/>
		<rect x="7" y="10" fill="#720000" width="1" height="1"/>
		<rect x="6" y="10" fill="#720000" width="1" height="1"/>
		<rect x="5" y="10" fill="#720000" width="1" height="1"/>
		<rect x="4" y="10" fill="#720000" width="1" height="1"/>
		<rect x="3" y="10" fill="#720000" width="1" height="1"/>
		<rect x="2" y="10" fill="#413421" width="1" height="1"/>
		<rect x="1" y="10" fill="#695433" width="1" height="1"/>
		<rect x="14" y="9" fill="#413421" width="1" height="1"/>
		<rect x="13" y="9" fill="#413421" width="1" height="1"/>
		<rect x="11" y="9" fill="#413421" width="1" height="1"/>
		<rect x="10" y="9" fill="#413421" width="1" height="1"/>
		<rect x="9" y="9" fill="#720000" width="1" height="1"/>
		<rect x="8" y="9" fill="#720000" width="1" height="1"/>
		<rect x="7" y="9" fill="#720000" width="1" height="1"/>
		<rect x="6" y="9" fill="#720000" width="1" height="1"/>
		<rect x="5" y="9" fill="#810707" width="1" height="1"/>
		<rect x="4" y="9" fill="#8C1515" width="1" height="1"/>
		<rect x="3" y="9" fill="#720000" width="1" height="1"/>
		<rect x="2" y="9" fill="#720000" width="1" height="1"/>
		<rect x="1" y="9" fill="#413421" width="1" height="1"/>
		<rect x="14" y="8" fill="#413421" width="1" height="1"/>
		<rect x="13" y="8" fill="#695433" width="1" height="1"/>
		<rect x="12" y="8" fill="#413421" width="1" height="1"/>
		<rect x="11" y="8" fill="#720000" width="1" height="1"/>
		<rect x="10" y="8" fill="#720000" width="1" height="1"/>
		<rect x="9" y="8" fill="#720000" width="1" height="1"/>
		<rect x="8" y="8" fill="#720000" width="1" height="1"/>
		<rect x="7" y="8" fill="#810707" width="1" height="1"/>
		<rect x="6" y="8" fill="#8C1515" width="1" height="1"/>
		<rect x="5" y="8" fill="#8C1515" width="1" height="1"/>
		<rect x="4" y="8" fill="#8C1515" width="1" height="1"/>
		<rect x="3" y="8" fill="#8C1515" width="1" height="1"/>
		<rect x="2" y="8" fill="#720000" width="1" height="1"/>
		<rect x="1" y="8" fill="#720000" width="1" height="1"/>
		<rect x="14" y="7" fill="#413421" width="1" height="1"/>
		<rect x="13" y="7" fill="#695433" width="1" height="1"/>
		<rect x="12" y="7" fill="#720000" width="1" height="1"/>
		<rect x="11" y="7" fill="#720000" width="1" height="1"/>
		<rect x="10" y="7" fill="#720000" width="1" height="1"/>
		<rect x="9" y="7" fill="#810707" width="1" height="1"/>
		<rect x="8" y="7" fill="#8C1515" width="1" height="1"/>
		<rect x="7" y="7" fill="#8C1515" width="1" height="1"/>
		<rect x="6" y="7" fill="#8C1515" width="1" height="1"/>
		<rect x="5" y="7" fill="#8C1515" width="1" height="1"/>
		<rect x="4" y="7" fill="#8C1515" width="1" height="1"/>
		<rect x="3" y="7" fill="#9C2626" width="1" height="1"/>
		<rect x="2" y="7" fill="#8C1515" width="1" height="1"/>
		<rect x="1" y="7" fill="#720000" width="1" height="1"/>
		<rect x="14" y="6" fill="#413421" width="1" height="1"/>
		<rect x="13" y="6" fill="#727272" width="1" height="1"/>
		<rect x="12" y="6" fill="#720000" width="1" height="1"/>
		<rect x="11" y="6" fill="#810707" width="1" height="1"/>
		<rect x="10" y="6" fill="#8C1515" width="1" height="1"/>
		<rect x="9" y="6" fill="#8C1515" width="1" height="1"/>
		<rect x="8" y="6" fill="#8C1515" width="1" height="1"/>
		<rect x="7" y="6" fill="#8C1515" width="1" height="1"/>
		<rect x="6" y="6" fill="#8C1515" width="1" height="1"/>
		<rect x="5" y="6" fill="#8C1515" width="1" height="1"/>
		<rect x="4" y="6" fill="#9C2626" width="1" height="1"/>
		<rect x="3" y="6" fill="#9C2626" width="1" height="1"/>
		<rect x="2" y="6" fill="#8C1515" width="1" height="1"/>
		<rect x="1" y="6" fill="#720000" width="1" height="1"/>
		<rect x="14" y="5" fill="#727272" width="1" height="1"/>
		<rect x="13" y="5" fill="#EBEBEB" width="1" height="1"/>
		<rect x="12" y="5" fill="#BEBEBE" width="1" height="1"/>
		<rect x="11" y="5" fill="#720000" width="1" height="1"/>
		<rect x="10" y="5" fill="#9C2626" width="1" height="1"/>
		<rect x="9" y="5" fill="#9C2626" width="1" height="1"/>
		<rect x="8" y="5" fill="#8C1515" width="1" height="1"/>
		<rect x="7" y="5" fill="#8C1515" width="1" height="1"/>
		<rect x="6" y="5" fill="#8C1515" width="1" height="1"/>
		<rect x="5" y="5" fill="#9C2626" width="1" height="1"/>
		<rect x="4" y="5" fill="#8C1515" width="1" height="1"/>
		<rect x="3" y="5" fill="#8C1515" width="1" height="1"/>
		<rect x="2" y="5" fill="#720000" width="1" height="1"/>
		<rect x="14" y="4" fill="#727272" width="1" height="1"/>
		<rect x="13" y="4" fill="#EBEBEB" width="1" height="1"/>
		<rect x="12" y="4" fill="#EBEBEB" width="1" height="1"/>
		<rect x="11" y="4" fill="#BEBEBE" width="1" height="1"/>
		<rect x="10" y="4" fill="#720000" width="1" height="1"/>
		<rect x="9" y="4" fill="#9C2626" width="1" height="1"/>
		<rect x="8" y="4" fill="#9C2626" width="1" height="1"/>
		<rect x="7" y="4" fill="#8C1515" width="1" height="1"/>
		<rect x="6" y="4" fill="#8C1515" width="1" height="1"/>
		<rect x="5" y="4" fill="#8C1515" width="1" height="1"/>
		<rect x="4" y="4" fill="#720000" width="1" height="1"/>
		<rect x="3" y="4" fill="#720000" width="1" height="1"/>
		<rect x="13" y="3" fill="#727272" width="1" height="1"/>
		<rect x="12" y="3" fill="#EBEBEB" width="1" height="1"/>
		<rect x="11" y="3" fill="#EBEBEB" width="1" height="1"/>
		<rect x="10" y="3" fill="#BEBEBE" width="1" height="1"/>
		<rect x="9" y="3" fill="#720000" width="1" height="1"/>
		<rect x="8" y="3" fill="#9C2626" width="1" height="1"/>
		<rect x="7" y="3" fill="#9C2626" width="1" height="1"/>
		<rect x="6" y="3" fill="#720000" width="1" height="1"/>
		<rect x="5" y="3" fill="#720000" width="1" height="1"/>
		<rect x="12" y="2" fill="#727272" width="1" height="1"/>
		<rect x="11" y="2" fill="#EBEBEB" width="1" height="1"/>
		<rect x="10" y="2" fill="#EBEBEB" width="1" height="1"/>
		<rect x="9" y="2" fill="#BEBEBE" width="1" height="1"/>
		<rect x="8" y="2" fill="#720000" width="1" height="1"/>
		<rect x="7" y="2" fill="#720000" width="1" height="1"/>
		<rect x="11" y="1" fill="#727272" width="1" height="1"/>
		<rect x="10" y="1" fill="#727272" width="1" height="1"/>
		<rect x="9" y="1" fill="#727272" width="1" height="1"/>
	</g>
</g>
<g id="Layer_5">
	<g>
		<rect x="8" y="14" fill="#2A160D" width="1" height="1"/>
		<rect x="7" y="14" fill="#2A160D" width="1" height="1"/>
		<rect x="6" y="14" fill="#2A160D" width="1" height="1"/>
		<rect x="5" y="14" fill="#2A160D" width="1" height="1"/>
		<rect x="10" y="13" fill="#2A160D" width="1" height="1"/>
		<rect x="9" y="13" fill="#2A160D" width="1" height="1"/>
		<rect x="8" y="13" fill="#3F2116" width="1" height="1"/>
		<rect x="7" y="13" fill="#3F2116" width="1" height="1"/>
		<rect x="6" y="13" fill="#3F2116" width="1" height="1"/>
		<rect x="5" y="13" fill="#3F2116" width="1" height="1"/>
		<rect x="4" y="13" fill="#3F2116" width="1" height="1"/>
		<rect x="3" y="13" fill="#2A160D" width="1" height="1"/>
		<rect x="11" y="12" fill="#26140B" width="1" height="1"/>
		<rect x="10" y="12" fill="#3F2116" width="1" height="1"/>
		<rect x="9" y="12" fill="#3F2116" width="1" height="1"/>
		<rect x="8" y="12" fill="#90573F" width="1" height="1"/>
		<rect x="7" y="12" fill="#673728" width="1" height="1"/>
		<rect x="6" y="12" fill="#6B3A2A" width="1" height="1"/>
		<rect x="5" y="12" fill="#90573F" width="1" height="1"/>
		<rect x="4" y="12" fill="#522F1F" width="1" height="1"/>
		<rect x="3" y="12" fill="#3F2116" width="1" height="1"/>
		<rect x="12" y="11" fill="#2A160D" width="1" height="1"/>
		<rect x="11" y="11" fill="#3F2116" width="1" height="1"/>
		<rect x="10" y="11" fill="#673627" width="1" height="1"/>
		<rect x="9" y="11" fill="#6D3C2B" width="1" height="1"/>
		<rect x="8" y="11" fill="#8D543D" width="1" height="1"/>
		<rect x="7" y="11" fill="#8C533C" width="1" height="1"/>
		<rect x="6" y="11" fill="#693829" width="1" height="1"/>
		<rect x="5" y="11" fill="#854B3C" width="1" height="1"/>
		<rect x="4" y="11" fill="#975B42" width="1" height="1"/>
		<rect x="3" y="11" fill="#90573F" width="1" height="1"/>
		<rect x="2" y="11" fill="#6B3A2A" width="1" height="1"/>
		<rect x="13" y="10" fill="#2A160D" width="1" height="1"/>
		<rect x="12" y="10" fill="#3F2116" width="1" height="1"/>
		<rect x="11" y="10" fill="#90573F" width="1" height="1"/>
		<rect x="10" y="10" fill="#8C533C" width="1" height="1"/>
		<rect x="9" y="10" fill="#723F2E" width="1" height="1"/>
		<rect x="8" y="10" fill="#82483A" width="1" height="1"/>
		<rect x="7" y="10" fill="#7F4A35" width="1" height="1"/>
		<rect x="6" y="10" fill="#8E553E" width="1" height="1"/>
		<rect x="5" y="10" fill="#6F3D2C" width="1" height="1"/>
		<rect x="4" y="10" fill="#7A3E2D" width="1" height="1"/>
		<rect x="3" y="10" fill="#874B37" width="1" height="1"/>
		<rect x="2" y="10" fill="#6B3A2A" width="1" height="1"/>
		<rect x="13" y="9" fill="#3F2116" width="1" height="1"/>
		<rect x="12" y="9" fill="#683828" width="1" height="1"/>
		<rect x="11" y="9" fill="#6D3C2B" width="1" height="1"/>
		<rect x="10" y="9" fill="#9C6854" width="1" height="1"/>
		<rect x="9" y="9" fill="#9D6147" width="1" height="1"/>
		<rect x="8" y="9" fill="#8E523C" width="1" height="1"/>
		<rect x="7" y="9" fill="#824839" width="1" height="1"/>
		<rect x="6" y="9" fill="#723F2E" width="1" height="1"/>
		<rect x="5" y="9" fill="#9D6147" width="1" height="1"/>
		<rect x="4" y="9" fill="#8A4E39" width="1" height="1"/>
		<rect x="3" y="9" fill="#6B3A2A" width="1" height="1"/>
		<rect x="14" y="8" fill="#2A160D" width="1" height="1"/>
		<rect x="13" y="8" fill="#3F2116" width="1" height="1"/>
		<rect x="12" y="8" fill="#8E553E" width="1" height="1"/>
		<rect x="11" y="8" fill="#713F2D" width="1" height="1"/>
		<rect x="10" y="8" fill="#673728" width="1" height="1"/>
		<rect x="9" y="8" fill="#8C503A" width="1" height="1"/>
		<rect x="8" y="8" fill="#90573F" width="1" height="1"/>
		<rect x="7" y="8" fill="#985C43" width="1" height="1"/>
		<rect x="6" y="8" fill="#693829" width="1" height="1"/>
		<rect x="5" y="8" fill="#793E2D" width="1" height="1"/>
		<rect x="4" y="8" fill="#87503A" width="1" height="1"/>
		<rect x="3" y="8" fill="#6B3A2A" width="1" height="1"/>
		<rect x="14" y="7" fill="#2A160D" width="1" height="1"/>
		<rect x="13" y="7" fill="#90573F" width="1" height="1"/>
		<rect x="12" y="7" fill="#89513B" width="1" height="1"/>
		<rect x="11" y="7" fill="#9D6147" width="1" height="1"/>
		<rect x="10" y="7" fill="#824C37" width="1" height="1"/>
		<rect x="9" y="7" fill="#673728" width="1" height="1"/>
		<rect x="8" y="7" fill="#884F40" width="1" height="1"/>
		<rect x="7" y="7" fill="#90573F" width="1" height="1"/>
		<rect x="6" y="7" fill="#90573F" width="1" height="1"/>
		<rect x="5" y="7" fill="#6B3A2A" width="1" height="1"/>
		<rect x="4" y="7" fill="#6B3A2A" width="1" height="1"/>
		<rect x="14" y="6" fill="#3F2116" width="1" height="1"/>
		<rect x="13" y="6" fill="#90573F" width="1" height="1"/>
		<rect x="12" y="6" fill="#854B3C" width="1" height="1"/>
		<rect x="11" y="6" fill="#7C402F" width="1" height="1"/>
		<rect x="10" y="6" fill="#945941" width="1" height="1"/>
		<rect x="9" y="6" fill="#9A6551" width="1" height="1"/>
		<rect x="8" y="6" fill="#653526" width="1" height="1"/>
		<rect x="7" y="6" fill="#82483A" width="1" height="1"/>
		<rect x="6" y="6" fill="#6B3A2A" width="1" height="1"/>
		<rect x="14" y="5" fill="#3F2116" width="1" height="1"/>
		<rect x="13" y="5" fill="#90573F" width="1" height="1"/>
		<rect x="12" y="5" fill="#90573F" width="1" height="1"/>
		<rect x="11" y="5" fill="#723F2E" width="1" height="1"/>
		<rect x="10" y="5" fill="#793D2D" width="1" height="1"/>
		<rect x="9" y="5" fill="#8D5544" width="1" height="1"/>
		<rect x="8" y="5" fill="#7F4A35" width="1" height="1"/>
		<rect x="7" y="5" fill="#6B3A2A" width="1" height="1"/>
		<rect x="13" y="4" fill="#2A160D" width="1" height="1"/>
		<rect x="12" y="4" fill="#90573F" width="1" height="1"/>
		<rect x="11" y="4" fill="#A3705A" width="1" height="1"/>
		<rect x="10" y="4" fill="#804B36" width="1" height="1"/>
		<rect x="9" y="4" fill="#653527" width="1" height="1"/>
		<rect x="8" y="4" fill="#6B3A2A" width="1" height="1"/>
		<rect x="12" y="3" fill="#6B3A2A" width="1" height="1"/>
		<rect x="11" y="3" fill="#6B3A2A" width="1" height="1"/>
		<rect x="10" y="3" fill="#6B3A2A" width="1" height="1"/>
		<rect x="9" y="3" fill="#6B3A2A" width="1" height="1"/>
	</g>
</g>
</svg>
